<svg width="123" height="45" viewBox="0 0 123 45" fill="none" xmlns="http://www.w3.org/2000/svg">
<path d="M118.347 33.0485C119.241 33.0485 120.038 33.2371 120.736 33.6144C121.435 33.9777 121.987 34.5297 122.392 35.2703C122.797 36.0108 123 36.9121 123 37.9741V44.7442H121.114V38.2466C121.114 37.1008 120.827 36.2274 120.254 35.6266C119.695 35.0118 118.934 34.7043 117.97 34.7043C116.977 34.7043 116.188 35.0257 115.601 35.6685C115.014 36.2973 114.721 37.2126 114.721 38.4143V44.7442H112.834V38.2466C112.834 37.1008 112.548 36.2274 111.975 35.6266C111.416 35.0118 110.655 34.7043 109.69 34.7043C108.698 34.7043 107.909 35.0257 107.322 35.6685C106.735 36.2973 106.442 37.2126 106.442 38.4143V44.7442H104.534V33.2581H106.442V34.9139C106.819 34.3131 107.322 33.852 107.951 33.5306C108.593 33.2092 109.299 33.0485 110.068 33.0485C111.032 33.0485 111.884 33.2651 112.625 33.6983C113.365 34.1314 113.917 34.7672 114.281 35.6056C114.602 34.7952 115.133 34.1664 115.874 33.7192C116.614 33.2721 117.439 33.0485 118.347 33.0485Z" fill="white"/>
<path d="M88.1899 38.9592C88.1899 37.7854 88.4275 36.7584 88.9026 35.8781C89.3777 34.9838 90.0274 34.2921 90.8519 33.803C91.6903 33.314 92.6195 33.0694 93.6396 33.0694C94.6456 33.0694 95.519 33.286 96.2596 33.7192C97.0002 34.1524 97.5521 34.6973 97.9154 35.3541V33.2581H99.8437V44.7442H97.9154V42.6063C97.5381 43.277 96.9722 43.8359 96.2176 44.2831C95.4771 44.7162 94.6107 44.9328 93.6186 44.9328C92.5985 44.9328 91.6763 44.6813 90.8519 44.1783C90.0274 43.6752 89.3777 42.9696 88.9026 42.0613C88.4275 41.153 88.1899 40.119 88.1899 38.9592ZM97.9154 38.9802C97.9154 38.1138 97.7407 37.3593 97.3914 36.7165C97.0421 36.0737 96.567 35.5846 95.9661 35.2493C95.3792 34.8999 94.7295 34.7253 94.0168 34.7253C93.3042 34.7253 92.6544 34.893 92.0675 35.2283C91.4807 35.5637 91.0126 36.0527 90.6632 36.6955C90.3139 37.3383 90.1392 38.0929 90.1392 38.9592C90.1392 39.8395 90.3139 40.6081 90.6632 41.2648C91.0126 41.9076 91.4807 42.4036 92.0675 42.753C92.6544 43.0883 93.3042 43.256 94.0168 43.256C94.7295 43.256 95.3792 43.0883 95.9661 42.753C96.567 42.4036 97.0421 41.9076 97.3914 41.2648C97.7407 40.6081 97.9154 39.8465 97.9154 38.9802Z" fill="white"/>
<path d="M72.5583 38.9592C72.5583 37.7855 72.7959 36.7584 73.271 35.8781C73.7461 34.9838 74.3958 34.2921 75.2203 33.8031C76.0587 33.314 76.9949 33.0695 78.0289 33.0695C78.9232 33.0695 79.7546 33.2791 80.5232 33.6983C81.2917 34.1035 81.8786 34.6415 82.2838 35.3122V29.2338H84.2121V44.7442H82.2838V42.5853C81.9065 43.27 81.3476 43.8359 80.607 44.2831C79.8664 44.7163 79.0001 44.9328 78.008 44.9328C76.9879 44.9328 76.0587 44.6813 75.2203 44.1783C74.3958 43.6752 73.7461 42.9696 73.271 42.0613C72.7959 41.153 72.5583 40.119 72.5583 38.9592ZM82.2838 38.9802C82.2838 38.1138 82.1091 37.3593 81.7598 36.7165C81.4105 36.0737 80.9354 35.5847 80.3345 35.2493C79.7476 34.9 79.0979 34.7253 78.3852 34.7253C77.6726 34.7253 77.0228 34.893 76.436 35.2283C75.8491 35.5637 75.381 36.0528 75.0316 36.6955C74.6823 37.3383 74.5076 38.0929 74.5076 38.9592C74.5076 39.8396 74.6823 40.6081 75.0316 41.2648C75.381 41.9076 75.8491 42.4037 76.436 42.753C77.0228 43.0884 77.6726 43.256 78.3852 43.256C79.0979 43.256 79.7476 43.0884 80.3345 42.753C80.9354 42.4037 81.4105 41.9076 81.7598 41.2648C82.1091 40.6081 82.2838 39.8465 82.2838 38.9802Z" fill="white"/>
<path d="M66.3157 41.4954H59.9439L58.7701 44.7442H56.7579L62.0399 30.2189H64.2407L69.5016 44.7442H67.4895L66.3157 41.4954ZM65.7708 39.9444L63.1298 32.5664L60.4888 39.9444H65.7708Z" fill="white"/>
<path d="M41.452 33.0485C42.3183 33.0485 43.1008 33.2371 43.7995 33.6144C44.4982 33.9777 45.0431 34.5297 45.4344 35.2703C45.8396 36.0108 46.0422 36.9121 46.0422 37.9741V44.7442H44.1558V38.2466C44.1558 37.1008 43.8694 36.2274 43.2965 35.6266C42.7236 35.0118 41.9411 34.7043 40.9489 34.7043C39.9429 34.7043 39.1394 35.0187 38.5385 35.6475C37.9517 36.2763 37.6582 37.1916 37.6582 38.3933V44.7442H35.7509V29.2338H37.6582V34.893C38.0355 34.3061 38.5525 33.852 39.2093 33.5306C39.88 33.2092 40.6276 33.0485 41.452 33.0485Z" fill="white"/>
<path d="M28.9752 34.8301V41.6002C28.9752 42.1591 29.094 42.5574 29.3316 42.7949C29.5691 43.0185 29.9813 43.1303 30.5682 43.1303H31.9725V44.7442H30.2538C29.1918 44.7442 28.3953 44.4997 27.8644 44.0106C27.3334 43.5215 27.0679 42.7181 27.0679 41.6002V34.8301H25.5797V33.2581H27.0679V30.3656H28.9752V33.2581H31.9725V34.8301H28.9752Z" fill="white"/>
<path d="M21.0085 31.3927C20.6452 31.3927 20.3378 31.2669 20.0863 31.0154C19.8347 30.7639 19.709 30.4564 19.709 30.0931C19.709 29.7298 19.8347 29.4224 20.0863 29.1709C20.3378 28.9194 20.6452 28.7936 21.0085 28.7936C21.3578 28.7936 21.6513 28.9194 21.8888 29.1709C22.1404 29.4224 22.2661 29.7298 22.2661 30.0931C22.2661 30.4564 22.1404 30.7639 21.8888 31.0154C21.6513 31.2669 21.3578 31.3927 21.0085 31.3927ZM21.9307 33.2581V44.7442H20.0234V33.2581H21.9307Z" fill="white"/>
<path d="M16.6632 33.2581L13.0791 44.7442H11.1088L8.3421 35.6266L5.57537 44.7442H3.60513L0 33.2581H1.94928L4.59025 42.8997L7.44082 33.2581H9.3901L12.1778 42.9207L14.7768 33.2581H16.6632Z" fill="white"/>
<path d="M121.716 23.2326H116.057L106.591 8.9025V23.2326H100.932V0H106.591L116.057 14.3962V0H121.716V23.2326Z" fill="#A8DC15"/>
<path d="M90.8741 0V23.2326H85.2148V0H90.8741Z" fill="#A8DC15"/>
<path d="M69.3193 19.1288H60.6484L59.2584 23.2326H53.3345L61.7406 0H68.2933L76.6994 23.2326H70.7093L69.3193 19.1288ZM67.8631 14.7603L64.9838 6.25492L62.1377 14.7603H67.8631Z" fill="#A8DC15"/>
<path d="M39.1585 23.2326L34.3266 14.4624H32.9698V23.2326H27.3105V0H36.8088C38.64 0 40.1955 0.319916 41.4751 0.959749C42.7769 1.59958 43.7476 2.48211 44.3875 3.60733C45.0273 4.71049 45.3472 5.94604 45.3472 7.31395C45.3472 8.85838 44.906 10.2373 44.0234 11.4508C43.163 12.6643 41.8833 13.5247 40.1844 14.0322L45.5458 23.2326H39.1585ZM32.9698 10.458H36.4778C37.5148 10.458 38.287 10.2042 38.7944 9.69678C39.324 9.18933 39.5887 8.47227 39.5887 7.54562C39.5887 6.66309 39.324 5.9681 38.7944 5.46064C38.287 4.95319 37.5148 4.69947 36.4778 4.69947H32.9698V10.458Z" fill="#A8DC15"/>
<path d="M18.5132 0V4.53399H12.3576V23.2326H6.69836V4.53399H0.542725V0H18.5132Z" fill="#A8DC15"/>
</svg>
